<svg id="Layer_1" data-name="Layer 1" xmlns="http://www.w3.org/2000/svg" viewBox="0 0 154.93 72.1"><defs><style>.cls-1{fill:#64c8ce;stroke:#231f20;stroke-miterlimit:10;}</style></defs><title>Fish</title><path class="cls-1" d="M76,0,61.59,16.13S13.38,17.78.55,34.54c0,0,2.76,2.35,2.21,3.54S0,39,0,39s2.48,6.9,31.37,12.24L38.73,62.3l1.47-.58.64-7.45s23.09,3.22,26,2.58l4.87,5.89,1.75-.92,7.64,7.26,1.56-.73-2-13.43,18.85-2.39L118.3,64.3s5.89-7.18,3.59-16.47c0,0-8.56-1.1-.92-3.68l11.87.65s13.7,7.63,21.89,6.9c0,0,.55-7.64-1.75-9.94s-.83-9.93-.83-9.93,3.52-1.93,2.64-14.72c0,0-6.32-3.13-21.95,11,0,0-11.14.73-11.59-.1S123.18,25,123.18,25L85.74,21s-2.21-1.56,2.76-2.76Z"/></svg>