<svg id="Layer_1" data-name="Layer 1" xmlns="http://www.w3.org/2000/svg" viewBox="0 0 85.35 89.32"><defs><style>.cls-1{fill:#f3c849;stroke:#231f20;stroke-miterlimit:10;}</style></defs><title>Fish</title><path class="cls-1" d="M67.4,1.82S37.59-3.69,16.29,33.9c0,0,.75,13-14,15.53l1.5,2.76L0,55.19l13.53,1s8,15.28,16.54,16.28c0,0,9,15.29,14.53,15.29l-.35-1.64s5.4,3.77,6.38,3.11c0,0-9-9.5-8.84-12.77s5.08,0,6.55,1.15,18.83,11.95,21.29,9.17c0,0-5.41-19-2.79-25.06,0,0,4.59-3.93,4.59-5.57s4.42-.65,4.42-.65l9.5,7.37-.82-31.94L71.59,43.55s-3.27-.32-3.27-1.63S57.67,20.46,57,20.3,52.24,9.06,67.4,1.82Z"/></svg>