<svg id="Layer_1" data-name="Layer 1" xmlns="http://www.w3.org/2000/svg" viewBox="0 0 301.58 373"><defs><style>.cls-1{fill:#a8a378;}.cls-2{fill:#443e3a;}</style></defs><title>Garbage</title><path class="cls-1" d="M46.7,160.86V294.33S74.64,309.07,153,309.07s104.76-15.52,104.76-15.52V156.2S245.36,138.35,146,138.35l-26.61.82,1.81-2.15h14.21l2.15-7.93,16.69,2.48,3.64-12.39L173.61,122l.33-12.73,16,1.66,2.65-13.55,15.2-.83V87.62h11.23l-.33-9.92h8.76l-1.15-7.27,9.25-1-5.12-4.3,3.63-6.77-5.45-1-.5-6.94-9.09,5.29-3.13-7.61-8.43,6.61-5.79-4L193,58.53l-4.79-3.3-4.47,5.29-4.46-3.64-2.81,6.28-6.11-5-5.62,8.93-3.8-3.47-4.46,7.27-9.09-2.48-5,7.76-7.93-2.64L127.18,86l-3.3-7.27-11.4,14.88-2.15-6.78L103.72,100l-5.45-5.12L94,105.3l-5-5.62-5,11.4-3.3-7.1-2.64,10.07-11.24-2.8-2.15,11.56-9.42.33-2,11.07-6-1.32V142l-9.58-2S40.75,161.39,46.7,160.86Z"/><path class="cls-2" d="M62.59,161.62S69,163.12,79.85,165c34,5.74,112.22,14.73,177.93-8.76,0,0-20.69-17.1-94.93-17.66l-43.43.63-6.22,10.15-9.93-4.25-8,10-8-6.19-20.81,8.51Z"/><path class="cls-2" d="M85.43,194.37s70.65,17.83,141.29,0"/><path class="cls-2" d="M85.43,221.33s70.65,17.84,141.29,0"/><path class="cls-2" d="M85.43,248.3s70.65,17.83,141.29,0"/></svg>