<svg id="Layer_1" data-name="Layer 1" xmlns="http://www.w3.org/2000/svg" viewBox="0 0 1450 413.88"><defs><style>.cls-1{fill:#be9664;}.cls-2{fill:#ef3b4d;}.cls-3{fill:#d1d3d4;}.cls-4{fill:#2bb673;}</style></defs><title>Garbage</title><path class="cls-1" d="M0,230.08v183.8H1450V176s-34.32,112.54-89.48,112.54-71.72,48.54-113.65,13.24-269.94,8.14-396-6.85S769.17,208,623,244s-167.31,59.3-245.67,31.77-223.09,69.89-282,48.71S0,230.08,0,230.08Z"/><path class="cls-2" d="M788.79,234.54a36,36,0,0,0-16.57,1.82c3.66-5.18,8.38-9.86,13.34-9.38,10.73,1.05,27.52,8.35,27.52,8.35s-18.76-25.57-30.15-21.52a35.55,35.55,0,0,0-15.32,10.4,29.16,29.16,0,0,0-2.44-5.13c4.67-4.7,4.19-13.59,4.19-13.59,11-.47,10-18.14,10-18.14,19.8-8,17.92-47.61,7.31-48.56s-22.15,23.57-22.15,23.57l-6.37-8.48c-6.6,25,13.44,32.05,9,32.05s-5.19,14.85-8,14.38-19.56,5.18-19.56,5.18.15.35.43.92a86.58,86.58,0,0,0-11.79.08l-5.28-22.1h0a6.93,6.93,0,1,0-.65,0L721,207.18c-1.86.23-3.77.5-5.77.82-15.45,2.47-32.79,5.46-48.48,9.91l-12.67-16.86a6.92,6.92,0,1,0-.5.36l7.79,18.11a119.32,119.32,0,0,0-22,9.1c-3.61-1.19-16.17-5.26-18.59-4.86-2.82.47-3.53-14.38-8-14.38s15.56-7.07,9-32l-6.37,8.48S603.8,161.3,593.2,162.24s-12.49,40.54,7.3,48.56c0,0-1,17.67,10,18.15,0,0-.86,15.86,10.85,16.41h0a26.46,26.46,0,0,0-1.56,3.63,37.08,37.08,0,0,0-10.47-5.74c-11.39-4.06-30.14,21.52-30.14,21.52s16.78-7.3,27.51-8.35c4.49-.44,8.79,3.36,12.28,7.92,0,.38.12.77.19,1.15a36.31,36.31,0,0,0-15.7-1.51c-12,1.41-17.48,32.65-17.48,32.65s11.81-14,21-19.68c4.57-2.85,11.58-.16,17.45,3.23.2.36.42.7.62,1.05l-3.66-2.65s-9.18-1-19.53,5.2-2.44,37-2.44,37,5-17.61,11-26.58c3.62-5.42,13.85-4.94,21.37-3.71.16.19.34.37.51.55l-4-1s-8.88,2.54-16.07,12.26,11.84,35.1,11.84,35.1-2.11-18.19,0-28.76c1.12-5.6,8.66-8.94,15.49-10.85C653.32,309,672.92,316,694.65,316c33.6,0,62.1-16.69,72.26-39.84a7.81,7.81,0,0,1,1.38,3.07c2.12,10.57,0,28.75,0,28.75s19-25.37,11.84-35.1a36.72,36.72,0,0,0-9.67-9.11c.16-1.16.28-2.32.36-3.49,4.7.18,9,1.34,11.09,4.48,6,9,11,26.57,11,26.57s7.91-30.7-2.44-37-19.53-5.21-19.53-5.21l0,0v0c5.13-2.52,10.63-4,14.44-1.62,9.16,5.69,21,19.68,21,19.68S800.8,236,788.79,234.54Z"/><path class="cls-3" d="M1371.24,273.74s-76.44,40.09-44.74,46.62S1425.32,307.3,1371.24,273.74Z"/><path class="cls-4" d="M1265.59,285.86s-11.63-6.88-7.5-38.74-3.54-40.84-16.52-40.18-6.49-15.85,4.13-34.73,1.62-26-8.92-26.54-11.29-10,0-40.11-6.42-15.34-21.16-23.59,24.77-21.83,13.56-38.93c0,0,14,8.84,7.6,23.59,0,0,29,28.31,17.18,47.78,0,0,23,49,5.31,70.78,0,0,20.64,27.72,16.51,59l15.62,60.31Z"/><path class="cls-4" d="M1238.68,293.12s-8.51-5-5.49-28.33-2.59-29.88-12.08-29.39-4.74-11.6,3-25.4,1.19-19-6.52-19.42-8.26-7.33,0-29.33-4.7-11.22-15.48-17.26,18.12-16,9.92-28.47c0,0,10.25,6.47,5.56,17.25,0,0,21.19,20.71,12.56,34.95,0,0,16.83,35.86,3.88,51.77,0,0,15.1,20.27,12.08,43.14l11.43,44.11Z"/><path class="cls-3" d="M1218,265.6s-79.86,34.25-55.62,49.16,132.38,56.87,151,30.77S1230.21,260,1218,265.6Z"/><path class="cls-4" d="M350.33,276.05s11.63-4.72,7.5-26.56,3.54-28,16.52-27.56,6.49-10.87-4.13-23.82-1.62-17.79,8.92-18.2,11.28-6.88,0-27.51,6.42-10.51,21.16-16.18-24.77-15-13.56-26.69c0,0-14,6.06-7.6,16.18,0,0-29,19.41-17.18,32.76,0,0-23,33.63-5.31,48.54,0,0-20.64,19-16.51,40.45l-15.62,41.36Z"/><path class="cls-4" d="M354,264.69s9.17-8.57-2.51-27.49-6.74-27.42,5.54-31.64,2.17-12.48-12.38-20.76-7.89-16,1.8-20.19,8.07-10.46-9.85-25.68,2.22-12.12,14-22.69-28.49-5.09-22.23-20.06c0,0-10.91,10.68-1.29,17.83,0,0-20.1,28.5-4.31,36.74,0,0-9.43,39.63,12.44,47.22,0,0-12.47,25.15-.93,43.68l.24,44.21Z"/><path class="cls-4" d="M237.89,280.08s19.77-20.38-3.9-38.25-12.81-34.57,13.3-51.19,5.19-20.16-25.07-20-15.83-16.86,4.84-31.19,17.54-22.21-19.48-29.37,5.29-19.68,30.59-45.16S178.34,81.6,192.3,54.31c0,0-23.54,24.94-3.63,27.28,0,0-43.83,58.93-10.93,57.63,0,0-21.9,66.22,23.82,58.82,0,0-27.56,47.51-4.17,65l-1.74,64.74Z"/><path class="cls-3" d="M359.74,252.3c-84.19,12.35-93.23,46.14-78.31,42.65s127.72,21.64,122.13.22S392.34,247.52,359.74,252.3Z"/><path class="cls-3" d="M198.46,285.86c-17.72,14.92-33.56,65.76,13,51.53s70.8-41.44,34.94-45.55S198.46,285.86,198.46,285.86Z"/></svg>