<?xml version="1.0" encoding="utf-8"?>
<!-- Generator: Adobe Illustrator 24.0.3, SVG Export Plug-In . SVG Version: 6.00 Build 0)  -->
<svg version="1.1" id="Layer_1" xmlns="http://www.w3.org/2000/svg" xmlns:xlink="http://www.w3.org/1999/xlink" x="0px" y="0px"
	 viewBox="0 0 122.38 113.72" style="enable-background:new 0 0 122.38 113.72;" xml:space="preserve">
<style type="text/css">
	.st0{fill:url(#);}
	.st1{fill:none;stroke:#D39736;stroke-width:10;stroke-miterlimit:10;}
	.st2{fill:#E9EBEA;stroke:#C1BFBD;stroke-miterlimit:10;}
	.st3{clip-path:url(#SVGID_4_);}
	.st4{clip-path:url(#SVGID_6_);}
	.st5{fill:none;}
	.st6{opacity:0.75;fill:#9E97A0;}
</style>
<path class="st6" d="M50.85,38.55c0,0,0.01-0.01,0.01-0.01L50.85,38.55c0.12-2.72-1.32-6.82-8.23-11.81
	c-12.68-9.15-28.22-1.55-27.16,6.75c0,0,0.31,2.96,1.59,6.43l0,0c0,0,1.97,10.31-7.66,18.53l0.02-0.01C6,61.06,3.86,64.82,5.3,69.82
	c3.93,13.62,18.97,12.26,18.97,12.26s15.52-1.47,12.46-13.5l0.41,1.12c-1.25-7.28,3.37-16.37,7.59-22.85
	c5.43-2.6,4.84-4.75,4.84-4.75S50.75,40.81,50.85,38.55z M40.79,27.82c10.23,7.91,5.6,13.29,5.6,13.29s0.97,3.75-12.42,7.04
	s-15.1-14.49-15.1-14.49C18.03,26.48,30.57,19.91,40.79,27.82z M15.41,55.26c0,0,4.32-5.08,4.32-6.71c0-0.88,0-2.33,0-3.47
	c1.07,1.5,2.41,2.86,4.07,3.86c-0.36,1.58-0.89,3.81-1.14,4.82c-2.1,0.09-4.71,0.59-7.27,1.51L15.41,55.26z M23.26,80.78
	c0,0-13.03,1.22-16.43-10.96C3.42,57.65,23.02,53.63,25.45,56.18c0,0,5.48,1.1,8.52,12.17C37.02,79.44,23.26,80.78,23.26,80.78z
	 M34.41,62.32L34.41,62.32c-1.36-2.73-2.83-4.51-4.11-5.67l2.83-5.95c0,0-0.17-0.07-0.44-0.19c0.48-0.07,0.98-0.16,1.48-0.28
	c1.73-0.4,3.26-0.8,4.62-1.2L34.41,62.32z"/>
<path class="st6" d="M34.56,77.45c0,0-0.01,0.01-0.01,0.01L34.56,77.45c-0.12,2.72,1.32,6.82,8.23,11.81
	c12.68,9.15,28.22,1.55,27.16-6.75c0,0-0.31-2.96-1.59-6.43l0,0c0,0-1.97-10.31,7.66-18.53L76,57.56c3.42-2.63,5.56-6.39,4.11-11.39
	c-3.93-13.62-18.97-12.26-18.97-12.26s-15.52,1.47-12.46,13.5l-0.41-1.12c1.25,7.28-3.37,16.37-7.59,22.85
	c-5.43,2.6-4.84,4.75-4.84,4.75S34.66,75.18,34.56,77.45z M44.62,88.17c-10.23-7.91-5.6-13.29-5.6-13.29s-0.97-3.75,12.42-7.04
	c13.39-3.29,15.1,14.49,15.1,14.49C67.39,89.51,54.85,96.09,44.62,88.17z M70,60.73c0,0-4.32,5.08-4.32,6.71c0,0.88,0,2.33,0,3.47
	c-1.07-1.5-2.41-2.86-4.07-3.86c0.36-1.58,0.89-3.81,1.14-4.82c2.1-0.09,4.71-0.59,7.27-1.51L70,60.73z M62.15,35.22
	c0,0,13.03-1.22,16.43,10.96C82,58.35,62.4,62.37,59.96,59.81c0,0-5.48-1.1-8.52-12.17C48.4,36.56,62.15,35.22,62.15,35.22z
	 M51,53.67L51,53.67c1.36,2.73,2.83,4.51,4.11,5.67l-2.83,5.95c0,0,0.17,0.07,0.44,0.19c-0.48,0.07-0.98,0.16-1.48,0.28
	c-1.73,0.4-3.26,0.8-4.62,1.2L51,53.67z"/>
<path class="st6" d="M113.87,60.57c0,0,0.01-0.01,0.01-0.01L113.87,60.57c0.12-2.72-1.32-6.82-8.23-11.81
	c-12.68-9.15-28.22-1.55-27.16,6.75c0,0,0.31,2.96,1.59,6.43l0,0c0,0,1.97,10.31-7.66,18.53l0.02-0.01
	c-3.42,2.63-5.56,6.39-4.11,11.39c3.93,13.62,18.97,12.26,18.97,12.26s15.52-1.47,12.46-13.5l0.41,1.12
	c-1.25-7.28,3.37-16.37,7.59-22.85c5.43-2.6,4.84-4.75,4.84-4.75S113.77,62.83,113.87,60.57z M103.81,49.84
	c10.23,7.91,5.6,13.29,5.6,13.29s0.97,3.75-12.42,7.04C83.6,73.46,81.9,55.68,81.9,55.68C81.05,48.5,93.58,41.93,103.81,49.84z
	 M78.43,77.28c0,0,4.32-5.08,4.32-6.71c0-0.88,0-2.33,0-3.47c1.07,1.5,2.41,2.86,4.07,3.86c-0.36,1.58-0.89,3.81-1.14,4.82
	c-2.1,0.09-4.71,0.59-7.27,1.51L78.43,77.28z M86.28,102.8c0,0-13.03,1.22-16.43-10.96c-3.41-12.17,16.19-16.19,18.63-13.63
	c0,0,5.48,1.1,8.52,12.17C100.04,101.46,86.28,102.8,86.28,102.8z M97.43,84.34L97.43,84.34c-1.36-2.73-2.83-4.51-4.11-5.67
	l2.83-5.95c0,0-0.17-0.07-0.44-0.19c0.48-0.07,0.98-0.16,1.48-0.28c1.73-0.4,3.26-0.8,4.62-1.2L97.43,84.34z"/>
</svg>
