<svg id="Layer_1" data-name="Layer 1" xmlns="http://www.w3.org/2000/svg" viewBox="0 0 99.27 48.14"><defs><style>.cls-1{fill:#64c8ce;stroke:#231f20;stroke-miterlimit:10;}</style></defs><title>Fish</title><path class="cls-1" d="M45.08,1.56s-19.33-3.28-30.2,8.8S-.48,28.13,0,31.07s2.07,0,2.07,2.24-2.24,1.21-1,2.42S19.54,50.4,40.94,47.81l-2.59-2.59s12.77-1.55,14-2.59c0,0,4.83,2.59,8.8-1l1.56-1.9,3.1-.69,5.35-6.39s-3.79.86-3.79-.69,4-4.31,13.29-.52,17.25,7.08,18.63,4.84c0,0-9.49-9.15-9.31-13.81S97.2,2.76,97.2,2.76,82.71,9.15,80.46,14.15s-12.08,4-12.08,2.94,4.14-.86,4.14-.86S61.48,3.11,57.68,2.94,45.08,1.56,45.08,1.56Z"/></svg>