<svg id="Layer_1" data-name="Layer 1" xmlns="http://www.w3.org/2000/svg" viewBox="0 0 116.38 139.26"><defs><style>.cls-1{fill:#f3c849;stroke:#231f20;stroke-miterlimit:10;}</style></defs><title>Fish</title><path class="cls-1" d="M91.36,4.4S44.45,37.49,41.1,41.26,16,62.83,13.87,69.53c0,0,.84,3.77-8.38,6.28,0,0-3.35,1.68,0,3.14S3.84,78.85,4,80.3s4.6,5.84,14,7c0,0,15.86,9.17,20.2,10.23a14.43,14.43,0,0,1,5.18,6.87C45,109,62.21,131.66,63.53,131.66S51.64,114,51.47,111.51s10.4,9.09,12.22,9.09-17.83-20.15-17.5-23.78,53,35,67.87,42.44h2.32S49.65,103.75,56.09,82.12c0,0,1.49-8.26,10.57-1.66S81.2,83.93,81.2,83.93,69.14,76,84.83,57.67c0,0-20.15,2.48-26.26,6.94s-8.75-8.09-4.46-13.21l-.33-10.08S79.22,18.51,91.36,4.4Z"/></svg>