<svg id="Layer_1" data-name="Layer 1" xmlns="http://www.w3.org/2000/svg" viewBox="0 0 88.37 76.54"><defs><style>.cls-1{fill:#ee313f;stroke:#231f20;stroke-miterlimit:10;}</style></defs><title>Fish</title><path class="cls-1" d="M25.43,18.18s3.64-16.35,8.33-16.8S46.47,11.52,46.47,11.52s12.26,5.6,10,13.62a3.23,3.23,0,0,1-3.63,2c-2.72-.45,3.63,3.94,6.36,1.36s10-17.25,24.22-17.1c0,0-1.82,3.52.76,4s6,6.48,3,10.27-2.42,6.2-2,6.51S86,42.25,83.11,42.7s-2.27,2.58-2.27,3-12,.45-12.11-1.36-1.37.91-1.37.91,10.15,5,12.26,11.8a45.44,45.44,0,0,1,1.82,13.69S64.15,66.92,56.9,51.94l-2.25-9.39s-3.18-.6-3.18,2.58-8.93,8.32-9.54,8.32-.3,2-.3,2,7,.15,8.48.6,1.66,5.91,2.12,10.75a3.74,3.74,0,0,1,2,2.73c.15,1.81,2.88,6-2.87,4.54A14.1,14.1,0,0,1,43,67.53s-4.09,4.12-3.33,6.83-10.75-3.2-10-18.94c0,0-15.44-1.67-16.65-6.66,0,0-12.87-5-13-10.58S25.43,18.18,25.43,18.18Z"/></svg>