<svg id="Layer_1" data-name="Layer 1" xmlns="http://www.w3.org/2000/svg" viewBox="0 0 111.48 47.14"><defs><style>.cls-1{fill:#ef4a87;stroke:#231f20;stroke-miterlimit:10;}</style></defs><title>Fish</title><path class="cls-1" d="M30.87,6.32S29.12.37,34,0,64.16,5.62,64.16,5.62L56.8,10.35s14.37,3.86,17.34,4.56,9.82,0,9.82,0S106.73,4,110.76,5.62,100.6,13.33,101,18.06s2.8,12.79,4.38,13-2.63,7.54-11.39,0-20-7.7-24.7-5.43,1.05,1.93,1.05,1.93S68.19,38.21,65,38.21,59.78,33,59.78,33L53,35.05l.35,3.16-9.11,8.93H39.28L33.15,36.81S6,32.6.56,25.07,30.87,6.32,30.87,6.32Z"/></svg>