<?xml version="1.0" encoding="utf-8"?>
<!-- Generator: Adobe Illustrator 24.0.3, SVG Export Plug-In . SVG Version: 6.00 Build 0)  -->
<svg version="1.1" id="Layer_1" xmlns="http://www.w3.org/2000/svg" xmlns:xlink="http://www.w3.org/1999/xlink" x="0px" y="0px"
	 viewBox="0 0 1024 266.68" style="enable-background:new 0 0 1024 266.68;" xml:space="preserve">
<style type="text/css">
	.st0{fill:none;}
	.st1{fill:#F8BE8B;stroke:#C1832C;stroke-width:0.3;stroke-linejoin:bevel;}
	.st2{fill:url(#Knit_Color);}
	.st3{fill:none;stroke:#D39736;stroke-width:10;stroke-miterlimit:10;}
	.st4{fill:#E9EBEA;stroke:#C1BFBD;stroke-miterlimit:10;}
	.st5{clip-path:url(#SVGID_4_);}
	.st6{clip-path:url(#SVGID_6_);}
	.st7{opacity:0.75;fill:#9E97A0;}
</style>
<pattern  x="232" y="-501.32" width="75.75" height="75.56" patternUnits="userSpaceOnUse" id="Knit_Color" viewBox="12.89 -94.61 75.75 75.56" style="overflow:visible;">
	<g>
		<rect x="12.89" y="-94.61" class="st0" width="75.75" height="75.56"/>
		<g>
			<path class="st1" d="M82.54-1.71c0.4-2,2.63-4.75,6.11-4.75c3.48,0,5.71-2.73,6.1-4.73c0.48-1.75-0.27-3.62,1.89-7.89
				c0.1,0.54,2.63,3.77,4.82,4.73c-0.14,0.08-0.17,1.17-0.17,1.85C100.79-2.19,90.05,2.55,82.54-1.71z"/>
		</g>
		<g>
			<path class="st1" d="M63.58-23.8c0.4,2,2.63,4.75,6.11,4.75c3.48,0,5.71,2.73,6.1,4.74c0.48,1.75-0.27,3.62,1.89,7.89
				c0.34-0.71,2.2-3.31,4.82-4.73c-0.14-0.08-0.17-1.17-0.17-1.86C81.84-23.32,71.09-28.06,63.58-23.8z"/>
			<path class="st1" d="M25.71-23.8c0.4,2,2.63,4.75,6.11,4.75c3.48,0,5.71,2.73,6.1,4.74c0.48,1.75-0.27,3.62,1.89,7.89
				c0.33-0.71,2.15-3.27,4.81-4.73c-0.14-0.08-0.17-1.17-0.17-1.86C43.96-23.32,33.22-28.06,25.71-23.8z"/>
			<path class="st1" d="M82.54-1.71c0.4-2,2.63-4.75,6.11-4.75c3.48,0,5.71-2.73,6.11-4.73c0.48-1.75-0.27-3.62,1.89-7.89
				c0.11,0.54,2.63,3.77,4.82,4.73c-0.14,0.08-0.17,1.17-0.17,1.85C100.79-2.19,90.05,2.55,82.54-1.71z"/>
			<path class="st1" d="M44.66-1.71c0.4-2,2.63-4.75,6.11-4.75c3.48,0,5.71-2.73,6.1-4.73c0.48-1.75-0.27-3.62,1.89-7.89
				c0.1,0.54,2.63,3.77,4.81,4.73c-0.14,0.08-0.17,1.17-0.17,1.85C62.92-2.19,52.17,2.55,44.66-1.71z"/>
			<path class="st1" d="M6.79-1.71c0.4-2,2.63-4.75,6.11-4.75c3.48,0,5.71-2.73,6.1-4.73c0.48-1.75-0.27-3.62,1.89-7.89
				c0.1,0.54,2.63,3.77,4.82,4.73c-0.14,0.08-0.17,1.17-0.17,1.85C25.04-2.19,14.3,2.55,6.79-1.71z"/>
			<path class="st1" d="M75.8-14.32c-0.4-2-2.63-4.75-6.11-4.75c-3.48,0-5.71-2.73-6.11-4.74c-0.48-1.75,0.27-3.62-1.89-7.89
				c-0.1,0.54-2.72,3.87-4.81,4.73c0.14,0.08,0.17,1.17,0.17,1.86C57.54-14.8,68.28-10.06,75.8-14.32z"/>
			<path class="st1" d="M37.92-14.32c-0.4-2-2.63-4.75-6.11-4.75c-3.48,0-5.71-2.73-6.1-4.74c-0.48-1.75,0.27-3.62-1.89-7.89
				c-0.1,0.54-2.73,3.87-4.82,4.73c0.14,0.08,0.17,1.17,0.17,1.86C19.66-14.8,30.41-10.06,37.92-14.32z"/>
		</g>
		<g>
			<path class="st1" d="M6.79-1.71c0.4-2,2.63-4.75,6.11-4.75c3.48,0,5.71-2.73,6.11-4.73c0.48-1.75-0.27-3.62,1.89-7.89
				c0.11,0.54,2.63,3.77,4.82,4.73c-0.14,0.08-0.17,1.17-0.17,1.85C25.04-2.19,14.3,2.55,6.79-1.71z"/>
		</g>
		<g>
			<path class="st1" d="M82.54-52.08c0.4-2,2.63-4.75,6.11-4.75c3.48,0,5.71-2.73,6.1-4.74c0.48-1.75-0.27-3.62,1.89-7.89
				c0.1,0.54,2.63,3.77,4.82,4.73c-0.14,0.08-0.17,1.17-0.17,1.85C100.79-52.57,90.05-47.83,82.54-52.08z"/>
			<path class="st1" d="M82.54-26.9c0.4-2,2.63-4.75,6.11-4.75c3.48,0,5.71-2.73,6.1-4.73c0.48-1.75-0.27-3.62,1.89-7.89
				c0.1,0.54,2.63,3.77,4.82,4.73c-0.14,0.08-0.17,1.17-0.17,1.85C100.79-27.38,90.05-22.64,82.54-26.9z"/>
			<path class="st1" d="M82.54-77.27c0.4-2,2.63-4.75,6.11-4.75c3.48,0,5.71-2.73,6.1-4.73c0.48-1.75-0.27-3.62,1.89-7.89
				c0.1,0.54,2.63,3.77,4.82,4.73c-0.14,0.08-0.17,1.17-0.17,1.85C100.79-77.75,90.05-73.01,82.54-77.27z"/>
			<path class="st1" d="M94.75-61.57c-0.4,2-2.63,4.75-6.11,4.75c-3.48,0-5.71,2.73-6.1,4.74c-0.48,1.75,0.27,3.62-1.89,7.89
				c-0.1-0.54-2.71-3.83-4.82-4.73C75.97-49,76-50.09,76-50.78C76.5-61.09,87.24-65.83,94.75-61.57z"/>
			<path class="st1" d="M94.75-36.38c-0.4,2-2.63,4.75-6.11,4.75c-3.48,0-5.71,2.73-6.1,4.73c-0.48,1.75,0.27,3.62-1.89,7.89
				c-0.1-0.54-2.71-3.83-4.82-4.73C75.97-23.82,76-24.9,76-25.59C76.5-35.9,87.24-40.64,94.75-36.38z"/>
			<path class="st1" d="M94.75-86.75c-0.4,2-2.63,4.75-6.11,4.75c-3.48,0-5.71,2.73-6.1,4.74c-0.48,1.75,0.27,3.62-1.89,7.89
				c-0.1-0.54-2.71-3.83-4.82-4.73c0.14-0.08,0.17-1.17,0.17-1.85C76.5-86.28,87.24-91.01,94.75-86.75z"/>
		</g>
		<g>
			<path class="st1" d="M63.58-74.17c0.4,2,2.63,4.75,6.11,4.75c3.48,0,5.71,2.73,6.1,4.74c0.48,1.75-0.27,3.62,1.89,7.89
				c0.45-0.94,2.15-3.27,4.82-4.73c-0.14-0.08-0.17-1.17-0.17-1.86C81.84-73.69,71.09-78.43,63.58-74.17z"/>
			<path class="st1" d="M25.71-74.17c0.4,2,2.63,4.75,6.11,4.75c3.48,0,5.71,2.73,6.1,4.74c0.48,1.75-0.27,3.62,1.89,7.89
				c0.33-0.71,2.15-3.27,4.81-4.73c-0.14-0.08-0.17-1.17-0.17-1.86C43.96-73.69,33.22-78.43,25.71-74.17z"/>
			<path class="st1" d="M82.54-52.08c0.4-2,2.63-4.75,6.11-4.75c3.48,0,5.71-2.73,6.11-4.74c0.48-1.75-0.27-3.62,1.89-7.89
				c0.11,0.54,2.63,3.77,4.82,4.73c-0.14,0.08-0.17,1.17-0.17,1.85C100.79-52.57,90.05-47.83,82.54-52.08z"/>
			<path class="st1" d="M44.66-52.08c0.4-2,2.63-4.75,6.11-4.75c3.48,0,5.71-2.73,6.1-4.74c0.48-1.75-0.27-3.62,1.89-7.89
				c0.1,0.54,2.63,3.77,4.81,4.73c-0.14,0.08-0.17,1.17-0.17,1.85C62.92-52.57,52.17-47.83,44.66-52.08z"/>
			<path class="st1" d="M63.58-48.99c0.4,2,2.63,4.75,6.11,4.75c3.48,0,5.71,2.73,6.1,4.74c0.48,1.75-0.27,3.62,1.89,7.89
				c0.52-0.87,2.15-3.27,4.82-4.73c-0.14-0.08-0.17-1.17-0.17-1.85C81.84-48.51,71.09-53.25,63.58-48.99z"/>
			<path class="st1" d="M6.79-52.08c0.4-2,2.63-4.75,6.11-4.75c3.48,0,5.71-2.73,6.1-4.74c0.48-1.75-0.27-3.62,1.89-7.89
				c0.1,0.54,2.63,3.77,4.82,4.73c-0.14,0.08-0.17,1.17-0.17,1.85C25.04-52.57,14.3-47.83,6.79-52.08z"/>
			<path class="st1" d="M25.71-48.99c0.4,2,2.63,4.75,6.11,4.75c3.48,0,5.71,2.73,6.1,4.74c0.48,1.75-0.27,3.62,1.89,7.89
				c0.33-0.71,2.15-3.27,4.81-4.73c-0.14-0.08-0.17-1.17-0.17-1.85C43.96-48.51,33.22-53.25,25.71-48.99z"/>
			<path class="st1" d="M82.54-26.9c0.4-2,2.63-4.75,6.11-4.75c3.48,0,5.71-2.73,6.11-4.73c0.48-1.75-0.27-3.62,1.89-7.89
				c0.11,0.54,2.63,3.77,4.82,4.73c-0.14,0.08-0.17,1.17-0.17,1.85C100.79-27.38,90.05-22.64,82.54-26.9z"/>
			<path class="st1" d="M44.66-26.9c0.4-2,2.63-4.75,6.11-4.75c3.48,0,5.71-2.73,6.1-4.73c0.48-1.75-0.27-3.62,1.89-7.89
				c0.1,0.54,2.63,3.77,4.81,4.73c-0.14,0.08-0.17,1.17-0.17,1.85C62.92-27.38,52.17-22.64,44.66-26.9z"/>
			<path class="st1" d="M63.58-23.8c0.4,2,2.63,4.75,6.11,4.75c3.48,0,5.71,2.73,6.1,4.73c0.48,1.75-0.27,3.62,1.89,7.89
				c0.34-0.71,2.15-3.27,4.82-4.73c-0.14-0.08-0.17-1.17-0.17-1.85C81.84-23.32,71.09-28.06,63.58-23.8z"/>
			<path class="st1" d="M6.79-26.9c0.4-2,2.63-4.75,6.11-4.75c3.48,0,5.71-2.73,6.1-4.73c0.48-1.75-0.27-3.62,1.89-7.89
				c0.1,0.54,2.63,3.77,4.82,4.73c-0.14,0.08-0.17,1.17-0.17,1.85C25.04-27.38,14.3-22.64,6.79-26.9z"/>
			<path class="st1" d="M25.71-23.8c0.4,2,2.63,4.75,6.11,4.75c3.48,0,5.71,2.73,6.1,4.73c0.48,1.75-0.27,3.62,1.89,7.89
				c0.33-0.71,2.15-3.27,4.81-4.73c-0.14-0.08-0.17-1.17-0.17-1.85C43.96-23.32,33.22-28.06,25.71-23.8z"/>
			<path class="st1" d="M63.58-99.36c0.4,2,2.63,4.75,6.11,4.75c3.48,0,5.71,2.73,6.1,4.74c0.48,1.75-0.27,3.62,1.89,7.89
				c0.34-0.71,2.2-3.31,4.82-4.73c-0.14-0.08-0.17-1.17-0.17-1.86C81.84-98.88,71.09-103.62,63.58-99.36z"/>
			<path class="st1" d="M25.71-99.36c0.4,2,2.63,4.75,6.11,4.75c3.48,0,5.71,2.73,6.1,4.74c0.48,1.75-0.27,3.62,1.89,7.89
				c0.33-0.71,2.15-3.27,4.81-4.73c-0.14-0.08-0.17-1.17-0.17-1.86C43.96-98.88,33.22-103.62,25.71-99.36z"/>
			<path class="st1" d="M82.54-77.27c0.4-2,2.63-4.75,6.11-4.75c3.48,0,5.71-2.73,6.11-4.73c0.48-1.75-0.27-3.62,1.89-7.89
				c0.11,0.54,2.63,3.77,4.82,4.73c-0.14,0.08-0.17,1.17-0.17,1.85C100.79-77.75,90.05-73.01,82.54-77.27z"/>
			<path class="st1" d="M44.66-77.27c0.4-2,2.63-4.75,6.11-4.75c3.48,0,5.71-2.73,6.1-4.73c0.48-1.75-0.27-3.62,1.89-7.89
				c0.1,0.54,2.63,3.77,4.81,4.73c-0.14,0.08-0.17,1.17-0.17,1.85C62.92-77.75,52.17-73.01,44.66-77.27z"/>
			<path class="st1" d="M6.79-77.27c0.4-2,2.63-4.75,6.11-4.75c3.48,0,5.71-2.73,6.1-4.73c0.48-1.75-0.27-3.62,1.89-7.89
				c0.1,0.54,2.63,3.77,4.82,4.73c-0.14,0.08-0.17,1.17-0.17,1.85C25.04-77.75,14.3-73.01,6.79-77.27z"/>
			<path class="st1" d="M94.75-61.57c-0.4,2-2.63,4.75-6.11,4.75s-5.71,2.73-6.1,4.74c-0.48,1.75,0.27,3.62-1.89,7.89
				c-0.1-0.54-2.71-3.83-4.81-4.73C75.97-49,76-50.09,76-50.78C76.5-61.09,87.24-65.83,94.75-61.57z"/>
			<path class="st1" d="M56.88-61.57c-0.4,2-2.63,4.75-6.11,4.75c-3.48,0-5.71,2.73-6.1,4.74c-0.48,1.75,0.27,3.62-1.89,7.89
				c-0.1-0.54-2.71-3.83-4.82-4.73c0.14-0.08,0.17-1.17,0.17-1.85C38.62-61.09,49.36-65.83,56.88-61.57z"/>
			<path class="st1" d="M75.8-39.5c-0.4-2-2.63-4.75-6.11-4.75c-3.48,0-5.71-2.73-6.11-4.74c-0.48-1.75,0.27-3.62-1.89-7.89
				c-0.1,0.54-2.42,3.65-4.81,4.73c0.14,0.08,0.17,1.17,0.17,1.85C57.54-39.98,68.28-35.25,75.8-39.5z"/>
			<path class="st1" d="M19-61.57c-0.4,2-2.63,4.75-6.11,4.75c-3.48,0-5.71,2.73-6.1,4.74c-0.48,1.75,0.27,3.62-1.89,7.89
				c-0.1-0.54-2.71-3.83-4.82-4.73c0.14-0.08,0.17-1.17,0.17-1.85C0.75-61.09,11.49-65.83,19-61.57z"/>
			<path class="st1" d="M37.92-39.5c-0.4-2-2.63-4.75-6.11-4.75c-3.48,0-5.71-2.73-6.1-4.74c-0.48-1.75,0.27-3.62-1.89-7.89
				c-0.1,0.54-2.48,3.71-4.82,4.73c0.14,0.08,0.17,1.17,0.17,1.85C19.66-39.98,30.41-35.25,37.92-39.5z"/>
			<path class="st1" d="M94.75-36.38c-0.4,2-2.63,4.75-6.11,4.75s-5.71,2.73-6.1,4.73c-0.48,1.75,0.27,3.62-1.89,7.89
				c-0.1-0.54-2.71-3.83-4.81-4.73C75.97-23.82,76-24.9,76-25.59C76.5-35.9,87.24-40.64,94.75-36.38z"/>
			<path class="st1" d="M56.88-36.38c-0.4,2-2.63,4.75-6.11,4.75c-3.48,0-5.71,2.73-6.1,4.73c-0.48,1.75,0.27,3.62-1.89,7.89
				c-0.1-0.54-2.71-3.83-4.82-4.73c0.14-0.08,0.17-1.17,0.17-1.85C38.62-35.9,49.36-40.64,56.88-36.38z"/>
			<path class="st1" d="M75.8-14.32c-0.4-2-2.63-4.75-6.11-4.75c-3.48,0-5.71-2.73-6.11-4.74c-0.48-1.75,0.27-3.62-1.89-7.89
				c-0.1,0.54-2.61,3.83-4.81,4.73c0.14,0.08,0.17,1.17,0.17,1.85C57.54-14.8,68.28-10.06,75.8-14.32z"/>
			<path class="st1" d="M19-36.38c-0.4,2-2.63,4.75-6.11,4.75c-3.48,0-5.71,2.73-6.1,4.73C6.31-25.15,7.06-23.28,4.89-19
				c-0.1-0.54-2.71-3.83-4.82-4.73c0.14-0.08,0.17-1.17,0.17-1.85C0.75-35.9,11.49-40.64,19-36.38z"/>
			<path class="st1" d="M37.92-14.32c-0.4-2-2.63-4.75-6.11-4.75c-3.48,0-5.71-2.73-6.1-4.74c-0.48-1.75,0.27-3.62-1.89-7.89
				c-0.1,0.54-2.54,3.71-4.82,4.73c0.14,0.08,0.17,1.17,0.17,1.85C19.66-14.8,30.41-10.06,37.92-14.32z"/>
			<path class="st1" d="M75.8-89.88c-0.4-2-2.63-4.75-6.11-4.75c-3.48,0-5.71-2.73-6.11-4.74c-0.48-1.75,0.27-3.62-1.89-7.89
				c-0.1,0.54-2.72,3.87-4.81,4.73c0.14,0.08,0.17,1.17,0.17,1.86C57.54-90.36,68.28-85.62,75.8-89.88z"/>
			<path class="st1" d="M37.92-89.88c-0.4-2-2.63-4.75-6.11-4.75c-3.48,0-5.71-2.73-6.1-4.74c-0.48-1.75,0.27-3.62-1.89-7.89
				c-0.1,0.54-2.73,3.87-4.82,4.73c0.14,0.08,0.17,1.17,0.17,1.86C19.66-90.36,30.41-85.62,37.92-89.88z"/>
			<path class="st1" d="M94.75-86.75c-0.4,2-2.63,4.75-6.11,4.75s-5.71,2.73-6.1,4.74c-0.48,1.75,0.27,3.62-1.89,7.89
				c-0.1-0.54-2.71-3.83-4.81-4.73c0.14-0.08,0.17-1.17,0.17-1.85C76.5-86.28,87.24-91.01,94.75-86.75z"/>
			<path class="st1" d="M56.88-86.75c-0.4,2-2.63,4.75-6.11,4.75c-3.48,0-5.71,2.73-6.1,4.74c-0.48,1.75,0.27,3.62-1.89,7.89
				c-0.1-0.54-2.71-3.83-4.82-4.73c0.14-0.08,0.17-1.17,0.17-1.85C38.62-86.28,49.36-91.01,56.88-86.75z"/>
			<path class="st1" d="M75.8-64.69c-0.4-2-2.63-4.75-6.11-4.75c-3.48,0-5.71-2.73-6.11-4.73c-0.48-1.75,0.27-3.62-1.89-7.89
				c-0.1,0.54-2.42,3.58-4.81,4.73c0.14,0.08,0.17,1.17,0.17,1.85C57.54-65.17,68.28-60.43,75.8-64.69z"/>
			<path class="st1" d="M19-86.75c-0.4,2-2.63,4.75-6.11,4.75c-3.48,0-5.71,2.73-6.1,4.74c-0.48,1.75,0.27,3.62-1.89,7.89
				c-0.1-0.54-2.71-3.83-4.82-4.73c0.14-0.08,0.17-1.17,0.17-1.85C0.75-86.28,11.49-91.01,19-86.75z"/>
			<path class="st1" d="M37.92-64.69c-0.4-2-2.63-4.75-6.11-4.75c-3.48,0-5.71-2.73-6.1-4.73c-0.48-1.75,0.27-3.62-1.89-7.89
				c-0.1,0.54-2.54,3.71-4.82,4.73c0.14,0.08,0.17,1.17,0.17,1.85C19.66-65.17,30.41-60.43,37.92-64.69z"/>
		</g>
		<g>
			<path class="st1" d="M6.79-52.08c0.4-2,2.63-4.75,6.11-4.75c3.48,0,5.71-2.73,6.11-4.74c0.48-1.75-0.27-3.62,1.89-7.89
				c0.11,0.54,2.63,3.77,4.82,4.73c-0.14,0.08-0.17,1.17-0.17,1.85C25.04-52.57,14.3-47.83,6.79-52.08z"/>
			<path class="st1" d="M6.79-26.9c0.4-2,2.63-4.75,6.11-4.75c3.48,0,5.71-2.73,6.11-4.73c0.48-1.75-0.27-3.62,1.89-7.89
				c0.11,0.54,2.63,3.77,4.82,4.73c-0.14,0.08-0.17,1.17-0.17,1.85C25.04-27.38,14.3-22.64,6.79-26.9z"/>
			<path class="st1" d="M6.79-77.27c0.4-2,2.63-4.75,6.11-4.75c3.48,0,5.71-2.73,6.11-4.73c0.48-1.75-0.27-3.62,1.89-7.89
				c0.11,0.54,2.63,3.77,4.82,4.73c-0.14,0.08-0.17,1.17-0.17,1.85C25.04-77.75,14.3-73.01,6.79-77.27z"/>
			<path class="st1" d="M19-61.57c-0.4,2-2.63,4.75-6.11,4.75c-3.48,0-5.71,2.73-6.1,4.74c-0.48,1.75,0.27,3.62-1.89,7.89
				c-0.1-0.54-2.71-3.83-4.81-4.73c0.14-0.08,0.17-1.17,0.17-1.85C0.74-61.09,11.49-65.83,19-61.57z"/>
			<path class="st1" d="M19-36.38c-0.4,2-2.63,4.75-6.11,4.75c-3.48,0-5.71,2.73-6.1,4.73C6.31-25.15,7.06-23.28,4.89-19
				c-0.1-0.54-2.71-3.83-4.81-4.73c0.14-0.08,0.17-1.17,0.17-1.85C0.74-35.9,11.49-40.64,19-36.38z"/>
			<path class="st1" d="M19-86.75c-0.4,2-2.63,4.75-6.11,4.75c-3.48,0-5.71,2.73-6.1,4.74c-0.48,1.75,0.27,3.62-1.89,7.89
				c-0.1-0.54-2.71-3.83-4.81-4.73c0.14-0.08,0.17-1.17,0.17-1.85C0.74-86.28,11.49-91.01,19-86.75z"/>
		</g>
		<g>
			<path class="st1" d="M94.75-111.94c-0.4,2-2.63,4.75-6.11,4.75c-3.48,0-5.71,2.73-6.1,4.73c-0.48,1.75,0.27,3.62-1.89,7.89
				c-0.1-0.54-2.71-3.83-4.82-4.73c0.14-0.08,0.17-1.17,0.17-1.85C76.5-111.46,87.24-116.2,94.75-111.94z"/>
		</g>
		<g>
			<path class="st1" d="M63.58-99.36c0.4,2,2.63,4.75,6.11,4.75c3.48,0,5.71,2.73,6.1,4.73c0.48,1.75-0.27,3.62,1.89,7.89
				c0.34-0.71,2.15-3.27,4.82-4.73c-0.14-0.08-0.17-1.17-0.17-1.85C81.84-98.88,71.09-103.62,63.58-99.36z"/>
			<path class="st1" d="M25.71-99.36c0.4,2,2.63,4.75,6.11,4.75c3.48,0,5.71,2.73,6.1,4.73c0.48,1.75-0.27,3.62,1.89,7.89
				c0.33-0.71,2.15-3.27,4.81-4.73c-0.14-0.08-0.17-1.17-0.17-1.85C43.96-98.88,33.22-103.62,25.71-99.36z"/>
			<path class="st1" d="M94.75-111.94c-0.4,2-2.63,4.75-6.11,4.75s-5.71,2.73-6.1,4.73c-0.48,1.75,0.27,3.62-1.89,7.89
				c-0.1-0.54-2.71-3.83-4.81-4.73c0.14-0.08,0.17-1.17,0.17-1.85C76.5-111.46,87.24-116.2,94.75-111.94z"/>
			<path class="st1" d="M56.88-111.94c-0.4,2-2.63,4.75-6.11,4.75c-3.48,0-5.71,2.73-6.1,4.73c-0.48,1.75,0.27,3.62-1.89,7.89
				c-0.1-0.54-2.71-3.83-4.82-4.73c0.14-0.08,0.17-1.17,0.17-1.85C38.62-111.46,49.36-116.2,56.88-111.94z"/>
			<path class="st1" d="M75.8-89.88c-0.4-2-2.63-4.75-6.11-4.75c-3.48,0-5.71-2.73-6.11-4.74c-0.48-1.75,0.27-3.62-1.89-7.89
				c-0.1,0.54-2.61,3.83-4.81,4.73c0.14,0.08,0.17,1.17,0.17,1.85C57.54-90.36,68.28-85.62,75.8-89.88z"/>
			<path class="st1" d="M19-111.94c-0.4,2-2.63,4.75-6.11,4.75c-3.48,0-5.71,2.73-6.1,4.73c-0.48,1.75,0.27,3.62-1.89,7.89
				c-0.1-0.54-2.71-3.83-4.82-4.73c0.14-0.08,0.17-1.17,0.17-1.85C0.75-111.46,11.49-116.2,19-111.94z"/>
			<path class="st1" d="M37.92-89.88c-0.4-2-2.63-4.75-6.11-4.75c-3.48,0-5.71-2.73-6.1-4.74c-0.48-1.75,0.27-3.62-1.89-7.89
				c-0.1,0.54-2.54,3.71-4.82,4.73c0.14,0.08,0.17,1.17,0.17,1.85C19.66-90.36,30.41-85.62,37.92-89.88z"/>
		</g>
		<g>
			<path class="st1" d="M19-111.94c-0.4,2-2.63,4.75-6.11,4.75c-3.48,0-5.71,2.73-6.1,4.73c-0.48,1.75,0.27,3.62-1.89,7.89
				c-0.1-0.54-2.71-3.83-4.81-4.73c0.14-0.08,0.17-1.17,0.17-1.85C0.74-111.46,11.49-116.2,19-111.94z"/>
		</g>
	</g>
</pattern>
<path class="st2" d="M0,82.32c0,0,118.95-12.8,159.03-26.57s94.38,32.01,169.37,28.17s126.71-35.85,152.57-35.85
	s-3.88,32.01,113.78,31.37C712.4,78.8,793.86,37.83,842.99,37.83c49.13,0,82.75,56.65,181.01,56.97v171.87H0V82.32z"/>
<path class="st3" d="M0,82.32c0,0,118.95-12.8,159.03-26.57s94.38,32.01,169.37,28.17s126.71-35.85,152.57-35.85
	s-3.88,32.01,113.78,31.37C712.4,78.8,793.86,37.83,842.99,37.83c49.13,0,82.75,56.65,181.01,56.97"/>
</svg>
